<mxfile host="app.diagrams.net" agent="Mozilla/5.0 (Windows NT 10.0; Win64; x64; rv:137.0) Gecko/20100101 Firefox/137.0" version="26.2.14">
  <diagram name="1 oldal" id="ximvj9S7UvDWj0myZY3I">
    <mxGraphModel dx="2754" dy="1243" grid="1" gridSize="10" guides="1" tooltips="1" connect="1" arrows="1" fold="1" page="1" pageScale="1" pageWidth="827" pageHeight="1169" math="0" shadow="0">
      <root>
        <mxCell id="0" />
        <mxCell id="1" parent="0" />
        <mxCell id="h642qaykJKakqAZfCrLz-44" style="rounded=0;orthogonalLoop=1;jettySize=auto;html=1;exitX=0.5;exitY=0;exitDx=0;exitDy=0;entryX=0.5;entryY=1;entryDx=0;entryDy=0;endArrow=none;startFill=0;" edge="1" parent="1" source="h642qaykJKakqAZfCrLz-1" target="h642qaykJKakqAZfCrLz-39">
          <mxGeometry relative="1" as="geometry" />
        </mxCell>
        <mxCell id="h642qaykJKakqAZfCrLz-45" style="rounded=0;orthogonalLoop=1;jettySize=auto;html=1;exitX=0.5;exitY=0;exitDx=0;exitDy=0;entryX=0.5;entryY=1;entryDx=0;entryDy=0;endArrow=none;startFill=0;" edge="1" parent="1" source="h642qaykJKakqAZfCrLz-1" target="h642qaykJKakqAZfCrLz-40">
          <mxGeometry relative="1" as="geometry" />
        </mxCell>
        <mxCell id="h642qaykJKakqAZfCrLz-46" style="rounded=0;orthogonalLoop=1;jettySize=auto;html=1;exitX=0.5;exitY=0;exitDx=0;exitDy=0;entryX=0.5;entryY=1;entryDx=0;entryDy=0;endArrow=none;startFill=0;" edge="1" parent="1" source="h642qaykJKakqAZfCrLz-1" target="h642qaykJKakqAZfCrLz-41">
          <mxGeometry relative="1" as="geometry" />
        </mxCell>
        <mxCell id="h642qaykJKakqAZfCrLz-47" style="rounded=0;orthogonalLoop=1;jettySize=auto;html=1;exitX=0.5;exitY=0;exitDx=0;exitDy=0;entryX=0.5;entryY=1;entryDx=0;entryDy=0;endArrow=none;startFill=0;" edge="1" parent="1" source="h642qaykJKakqAZfCrLz-1" target="h642qaykJKakqAZfCrLz-42">
          <mxGeometry relative="1" as="geometry" />
        </mxCell>
        <mxCell id="h642qaykJKakqAZfCrLz-48" style="rounded=0;orthogonalLoop=1;jettySize=auto;html=1;exitX=0.5;exitY=1;exitDx=0;exitDy=0;entryX=0.5;entryY=0;entryDx=0;entryDy=0;endArrow=none;startFill=0;" edge="1" parent="1" source="h642qaykJKakqAZfCrLz-1" target="h642qaykJKakqAZfCrLz-36">
          <mxGeometry relative="1" as="geometry" />
        </mxCell>
        <mxCell id="h642qaykJKakqAZfCrLz-49" style="rounded=0;orthogonalLoop=1;jettySize=auto;html=1;exitX=0.5;exitY=1;exitDx=0;exitDy=0;endArrow=none;startFill=0;" edge="1" parent="1" source="h642qaykJKakqAZfCrLz-1" target="h642qaykJKakqAZfCrLz-37">
          <mxGeometry relative="1" as="geometry" />
        </mxCell>
        <mxCell id="h642qaykJKakqAZfCrLz-50" style="rounded=0;orthogonalLoop=1;jettySize=auto;html=1;exitX=0.5;exitY=1;exitDx=0;exitDy=0;endArrow=none;startFill=0;" edge="1" parent="1" source="h642qaykJKakqAZfCrLz-1" target="h642qaykJKakqAZfCrLz-38">
          <mxGeometry relative="1" as="geometry" />
        </mxCell>
        <mxCell id="h642qaykJKakqAZfCrLz-51" style="rounded=0;orthogonalLoop=1;jettySize=auto;html=1;exitX=0.5;exitY=1;exitDx=0;exitDy=0;endArrow=none;startFill=0;" edge="1" parent="1" source="h642qaykJKakqAZfCrLz-1" target="h642qaykJKakqAZfCrLz-43">
          <mxGeometry relative="1" as="geometry" />
        </mxCell>
        <mxCell id="h642qaykJKakqAZfCrLz-1" value="Hallgató" style="rounded=0;whiteSpace=wrap;html=1;" vertex="1" parent="1">
          <mxGeometry x="1047" y="520" width="120" height="60" as="geometry" />
        </mxCell>
        <mxCell id="h642qaykJKakqAZfCrLz-21" style="rounded=0;orthogonalLoop=1;jettySize=auto;html=1;exitX=0.5;exitY=1;exitDx=0;exitDy=0;entryX=0.5;entryY=0;entryDx=0;entryDy=0;endArrow=none;startFill=0;" edge="1" parent="1" source="h642qaykJKakqAZfCrLz-2" target="h642qaykJKakqAZfCrLz-20">
          <mxGeometry relative="1" as="geometry" />
        </mxCell>
        <mxCell id="h642qaykJKakqAZfCrLz-22" style="rounded=0;orthogonalLoop=1;jettySize=auto;html=1;exitX=0.5;exitY=1;exitDx=0;exitDy=0;entryX=0.5;entryY=0;entryDx=0;entryDy=0;endArrow=none;startFill=0;" edge="1" parent="1" source="h642qaykJKakqAZfCrLz-2" target="h642qaykJKakqAZfCrLz-19">
          <mxGeometry relative="1" as="geometry" />
        </mxCell>
        <mxCell id="h642qaykJKakqAZfCrLz-2" value="Hallgat" style="rounded=0;whiteSpace=wrap;html=1;" vertex="1" parent="1">
          <mxGeometry x="527" y="520" width="120" height="60" as="geometry" />
        </mxCell>
        <mxCell id="h642qaykJKakqAZfCrLz-15" style="rounded=0;orthogonalLoop=1;jettySize=auto;html=1;exitX=0.5;exitY=1;exitDx=0;exitDy=0;entryX=0.5;entryY=0;entryDx=0;entryDy=0;endArrow=none;startFill=0;" edge="1" parent="1" source="h642qaykJKakqAZfCrLz-3" target="h642qaykJKakqAZfCrLz-13">
          <mxGeometry relative="1" as="geometry" />
        </mxCell>
        <mxCell id="h642qaykJKakqAZfCrLz-16" style="rounded=0;orthogonalLoop=1;jettySize=auto;html=1;exitX=0.5;exitY=1;exitDx=0;exitDy=0;entryX=0.5;entryY=0;entryDx=0;entryDy=0;endArrow=none;startFill=0;" edge="1" parent="1" source="h642qaykJKakqAZfCrLz-3" target="h642qaykJKakqAZfCrLz-12">
          <mxGeometry relative="1" as="geometry" />
        </mxCell>
        <mxCell id="h642qaykJKakqAZfCrLz-17" style="rounded=0;orthogonalLoop=1;jettySize=auto;html=1;exitX=0.5;exitY=1;exitDx=0;exitDy=0;entryX=0.5;entryY=0;entryDx=0;entryDy=0;endArrow=none;startFill=0;" edge="1" parent="1" source="h642qaykJKakqAZfCrLz-3" target="h642qaykJKakqAZfCrLz-11">
          <mxGeometry relative="1" as="geometry" />
        </mxCell>
        <mxCell id="h642qaykJKakqAZfCrLz-18" style="rounded=0;orthogonalLoop=1;jettySize=auto;html=1;exitX=0.5;exitY=0;exitDx=0;exitDy=0;entryX=1;entryY=0.5;entryDx=0;entryDy=0;endArrow=none;startFill=0;" edge="1" parent="1" source="h642qaykJKakqAZfCrLz-3" target="h642qaykJKakqAZfCrLz-14">
          <mxGeometry relative="1" as="geometry" />
        </mxCell>
        <mxCell id="h642qaykJKakqAZfCrLz-3" value="Tárgy" style="rounded=0;whiteSpace=wrap;html=1;" vertex="1" parent="1">
          <mxGeometry x="142" y="520" width="120" height="60" as="geometry" />
        </mxCell>
        <mxCell id="h642qaykJKakqAZfCrLz-8" style="rounded=0;orthogonalLoop=1;jettySize=auto;html=1;exitX=0.5;exitY=1;exitDx=0;exitDy=0;endArrow=none;startFill=0;" edge="1" parent="1" source="h642qaykJKakqAZfCrLz-4" target="h642qaykJKakqAZfCrLz-7">
          <mxGeometry relative="1" as="geometry" />
        </mxCell>
        <mxCell id="h642qaykJKakqAZfCrLz-10" style="rounded=0;orthogonalLoop=1;jettySize=auto;html=1;exitX=0.5;exitY=1;exitDx=0;exitDy=0;entryX=0.5;entryY=0;entryDx=0;entryDy=0;endArrow=none;startFill=0;" edge="1" parent="1" source="h642qaykJKakqAZfCrLz-4" target="h642qaykJKakqAZfCrLz-5">
          <mxGeometry relative="1" as="geometry" />
        </mxCell>
        <mxCell id="h642qaykJKakqAZfCrLz-56" style="rounded=0;orthogonalLoop=1;jettySize=auto;html=1;exitX=0.5;exitY=1;exitDx=0;exitDy=0;entryX=0.5;entryY=0;entryDx=0;entryDy=0;endArrow=none;startFill=0;" edge="1" parent="1" source="h642qaykJKakqAZfCrLz-4" target="h642qaykJKakqAZfCrLz-6">
          <mxGeometry relative="1" as="geometry" />
        </mxCell>
        <mxCell id="h642qaykJKakqAZfCrLz-4" value="Oktató" style="rounded=0;whiteSpace=wrap;html=1;" vertex="1" parent="1">
          <mxGeometry x="-278" y="520" width="120" height="60" as="geometry" />
        </mxCell>
        <mxCell id="h642qaykJKakqAZfCrLz-5" value="Tanszék" style="ellipse;whiteSpace=wrap;html=1;" vertex="1" parent="1">
          <mxGeometry x="-143" y="620" width="110" height="70" as="geometry" />
        </mxCell>
        <mxCell id="h642qaykJKakqAZfCrLz-6" value="Név" style="ellipse;whiteSpace=wrap;html=1;" vertex="1" parent="1">
          <mxGeometry x="-273" y="620" width="110" height="70" as="geometry" />
        </mxCell>
        <mxCell id="h642qaykJKakqAZfCrLz-7" value="Neptunkód" style="ellipse;whiteSpace=wrap;html=1;fontStyle=4" vertex="1" parent="1">
          <mxGeometry x="-413" y="620" width="110" height="70" as="geometry" />
        </mxCell>
        <mxCell id="h642qaykJKakqAZfCrLz-11" value="Kredit" style="ellipse;whiteSpace=wrap;html=1;" vertex="1" parent="1">
          <mxGeometry x="277" y="620" width="110" height="70" as="geometry" />
        </mxCell>
        <mxCell id="h642qaykJKakqAZfCrLz-12" value="Megnevezés" style="ellipse;whiteSpace=wrap;html=1;" vertex="1" parent="1">
          <mxGeometry x="147" y="620" width="110" height="70" as="geometry" />
        </mxCell>
        <mxCell id="h642qaykJKakqAZfCrLz-13" value="Kód" style="ellipse;whiteSpace=wrap;html=1;fontStyle=4" vertex="1" parent="1">
          <mxGeometry x="7" y="620" width="110" height="70" as="geometry" />
        </mxCell>
        <mxCell id="h642qaykJKakqAZfCrLz-14" value="Oktató" style="ellipse;whiteSpace=wrap;html=1;dashed=1;" vertex="1" parent="1">
          <mxGeometry x="17" y="440" width="120" height="80" as="geometry" />
        </mxCell>
        <mxCell id="h642qaykJKakqAZfCrLz-19" value="Vizsgajegy" style="ellipse;whiteSpace=wrap;html=1;" vertex="1" parent="1">
          <mxGeometry x="587" y="610" width="110" height="70" as="geometry" />
        </mxCell>
        <mxCell id="h642qaykJKakqAZfCrLz-20" value="Félév" style="ellipse;whiteSpace=wrap;html=1;" vertex="1" parent="1">
          <mxGeometry x="457" y="610" width="110" height="70" as="geometry" />
        </mxCell>
        <mxCell id="h642qaykJKakqAZfCrLz-29" style="edgeStyle=orthogonalEdgeStyle;rounded=0;orthogonalLoop=1;jettySize=auto;html=1;exitX=1;exitY=0.5;exitDx=0;exitDy=0;entryX=0;entryY=0.5;entryDx=0;entryDy=0;" edge="1" parent="1" source="h642qaykJKakqAZfCrLz-23" target="h642qaykJKakqAZfCrLz-2">
          <mxGeometry relative="1" as="geometry" />
        </mxCell>
        <mxCell id="h642qaykJKakqAZfCrLz-30" style="edgeStyle=orthogonalEdgeStyle;rounded=0;orthogonalLoop=1;jettySize=auto;html=1;exitX=0;exitY=0.5;exitDx=0;exitDy=0;entryX=1;entryY=0.5;entryDx=0;entryDy=0;" edge="1" parent="1" source="h642qaykJKakqAZfCrLz-23" target="h642qaykJKakqAZfCrLz-3">
          <mxGeometry relative="1" as="geometry" />
        </mxCell>
        <mxCell id="h642qaykJKakqAZfCrLz-35" style="edgeStyle=orthogonalEdgeStyle;rounded=0;orthogonalLoop=1;jettySize=auto;html=1;exitX=0;exitY=0.5;exitDx=0;exitDy=0;" edge="1" parent="1" source="h642qaykJKakqAZfCrLz-23">
          <mxGeometry relative="1" as="geometry">
            <mxPoint x="267" y="549.9999999999999" as="targetPoint" />
          </mxGeometry>
        </mxCell>
        <mxCell id="h642qaykJKakqAZfCrLz-23" value="T-H" style="rhombus;whiteSpace=wrap;html=1;" vertex="1" parent="1">
          <mxGeometry x="357" y="510" width="80" height="80" as="geometry" />
        </mxCell>
        <mxCell id="h642qaykJKakqAZfCrLz-25" style="edgeStyle=orthogonalEdgeStyle;rounded=0;orthogonalLoop=1;jettySize=auto;html=1;exitX=0;exitY=0.5;exitDx=0;exitDy=0;entryX=1;entryY=0.5;entryDx=0;entryDy=0;" edge="1" parent="1" source="h642qaykJKakqAZfCrLz-24" target="h642qaykJKakqAZfCrLz-2">
          <mxGeometry relative="1" as="geometry" />
        </mxCell>
        <mxCell id="h642qaykJKakqAZfCrLz-26" style="edgeStyle=orthogonalEdgeStyle;rounded=0;orthogonalLoop=1;jettySize=auto;html=1;exitX=1;exitY=0.5;exitDx=0;exitDy=0;entryX=0;entryY=0.5;entryDx=0;entryDy=0;" edge="1" parent="1" source="h642qaykJKakqAZfCrLz-24" target="h642qaykJKakqAZfCrLz-1">
          <mxGeometry relative="1" as="geometry" />
        </mxCell>
        <mxCell id="h642qaykJKakqAZfCrLz-27" style="edgeStyle=orthogonalEdgeStyle;rounded=0;orthogonalLoop=1;jettySize=auto;html=1;exitX=1;exitY=0.5;exitDx=0;exitDy=0;" edge="1" parent="1" source="h642qaykJKakqAZfCrLz-24">
          <mxGeometry relative="1" as="geometry">
            <mxPoint x="1037" y="550" as="targetPoint" />
          </mxGeometry>
        </mxCell>
        <mxCell id="h642qaykJKakqAZfCrLz-24" value="H-H" style="rhombus;whiteSpace=wrap;html=1;" vertex="1" parent="1">
          <mxGeometry x="777" y="510" width="80" height="80" as="geometry" />
        </mxCell>
        <mxCell id="h642qaykJKakqAZfCrLz-32" style="edgeStyle=orthogonalEdgeStyle;rounded=0;orthogonalLoop=1;jettySize=auto;html=1;exitX=0;exitY=0.5;exitDx=0;exitDy=0;entryX=1;entryY=0.5;entryDx=0;entryDy=0;" edge="1" parent="1" source="h642qaykJKakqAZfCrLz-31" target="h642qaykJKakqAZfCrLz-4">
          <mxGeometry relative="1" as="geometry" />
        </mxCell>
        <mxCell id="h642qaykJKakqAZfCrLz-33" style="edgeStyle=orthogonalEdgeStyle;rounded=0;orthogonalLoop=1;jettySize=auto;html=1;exitX=1;exitY=0.5;exitDx=0;exitDy=0;entryX=0;entryY=0.5;entryDx=0;entryDy=0;" edge="1" parent="1" source="h642qaykJKakqAZfCrLz-31" target="h642qaykJKakqAZfCrLz-3">
          <mxGeometry relative="1" as="geometry" />
        </mxCell>
        <mxCell id="h642qaykJKakqAZfCrLz-34" style="edgeStyle=orthogonalEdgeStyle;rounded=0;orthogonalLoop=1;jettySize=auto;html=1;exitX=0;exitY=0.5;exitDx=0;exitDy=0;" edge="1" parent="1" source="h642qaykJKakqAZfCrLz-31">
          <mxGeometry relative="1" as="geometry">
            <mxPoint x="-153" y="550" as="targetPoint" />
          </mxGeometry>
        </mxCell>
        <mxCell id="h642qaykJKakqAZfCrLz-31" value="T-O" style="rhombus;whiteSpace=wrap;html=1;" vertex="1" parent="1">
          <mxGeometry x="-43" y="510" width="80" height="80" as="geometry" />
        </mxCell>
        <mxCell id="h642qaykJKakqAZfCrLz-36" value="Ir. szám" style="ellipse;whiteSpace=wrap;html=1;" vertex="1" parent="1">
          <mxGeometry x="867" y="630" width="110" height="70" as="geometry" />
        </mxCell>
        <mxCell id="h642qaykJKakqAZfCrLz-37" value="Város" style="ellipse;whiteSpace=wrap;html=1;" vertex="1" parent="1">
          <mxGeometry x="987" y="630" width="110" height="70" as="geometry" />
        </mxCell>
        <mxCell id="h642qaykJKakqAZfCrLz-38" value="Utca" style="ellipse;whiteSpace=wrap;html=1;" vertex="1" parent="1">
          <mxGeometry x="1107" y="630" width="110" height="70" as="geometry" />
        </mxCell>
        <mxCell id="h642qaykJKakqAZfCrLz-39" value="Neptunkód" style="ellipse;whiteSpace=wrap;html=1;fontStyle=4" vertex="1" parent="1">
          <mxGeometry x="872" y="400" width="110" height="70" as="geometry" />
        </mxCell>
        <mxCell id="h642qaykJKakqAZfCrLz-40" value="Név" style="ellipse;whiteSpace=wrap;html=1;" vertex="1" parent="1">
          <mxGeometry x="992" y="400" width="110" height="70" as="geometry" />
        </mxCell>
        <mxCell id="h642qaykJKakqAZfCrLz-41" value="Születési dátum" style="ellipse;whiteSpace=wrap;html=1;" vertex="1" parent="1">
          <mxGeometry x="1112" y="400" width="110" height="70" as="geometry" />
        </mxCell>
        <mxCell id="h642qaykJKakqAZfCrLz-42" value="Tankör" style="ellipse;whiteSpace=wrap;html=1;" vertex="1" parent="1">
          <mxGeometry x="1237" y="400" width="110" height="70" as="geometry" />
        </mxCell>
        <mxCell id="h642qaykJKakqAZfCrLz-43" value="H.Szám." style="ellipse;whiteSpace=wrap;html=1;" vertex="1" parent="1">
          <mxGeometry x="1237" y="630" width="110" height="70" as="geometry" />
        </mxCell>
      </root>
    </mxGraphModel>
  </diagram>
</mxfile>
